<?xml version="1.0" encoding="utf-8"?>
<!-- Generator: Adobe Illustrator 16.0.4, SVG Export Plug-In . SVG Version: 6.00 Build 0)  -->
<!DOCTYPE svg PUBLIC "-//W3C//DTD SVG 1.1//EN" "http://www.w3.org/Graphics/SVG/1.1/DTD/svg11.dtd">
<svg version="1.1" id="Layer_1" xmlns="http://www.w3.org/2000/svg" xmlns:xlink="http://www.w3.org/1999/xlink" x="0px" y="0px"
	 width="852px" height="605px" viewBox="0 0 852 605" enable-background="new 0 0 852 605" xml:space="preserve">
<path id="film_edge_1_" fill="#0099F6" d="M0,0v605h120V0H0z M103,579.905C103,587.689,96.69,594,88.906,594H32.094
	C24.31,594,18,587.689,18,579.905v-27.811C18,544.311,24.31,538,32.094,538h56.812C96.69,538,103,544.311,103,552.095V579.905z
	 M103,474.906C103,482.69,96.69,489,88.906,489H32.094C24.31,489,18,482.69,18,474.906v-27.812C18,439.31,24.31,433,32.094,433
	h56.812C96.69,433,103,439.31,103,447.094V474.906z M103,368.905C103,376.689,96.69,383,88.906,383H32.094
	C24.31,383,18,376.689,18,368.905v-27.811C18,333.311,24.31,327,32.094,327h56.812C96.69,327,103,333.311,103,341.095V368.905z
	 M103,263.905C103,271.689,96.69,278,88.906,278H32.094C24.31,278,18,271.689,18,263.905v-27.811C18,228.311,24.31,222,32.094,222
	h56.812C96.69,222,103,228.311,103,236.095V263.905z M103,158.906C103,166.69,96.69,173,88.906,173H32.094
	C24.31,173,18,166.69,18,158.906v-27.812C18,123.31,24.31,117,32.094,117h56.812C96.69,117,103,123.31,103,131.094V158.906z
	 M103,53.906C103,61.69,96.69,68,88.906,68H32.094C24.31,68,18,61.69,18,53.906V26.094C18,18.31,24.31,12,32.094,12h56.812
	C96.69,12,103,18.31,103,26.094V53.906z"/>
<g id="double_bar">
	<rect x="792" fill="#0099F6" width="60" height="605"/>
	<rect x="746" fill="#0099F6" width="26" height="605"/>
</g>
<g>
	<path fill="#0099F6" d="M116.821,158.075c0-25.142,3.831-47.452,11.5-66.93c7.662-19.471,18.091-35.88,31.28-49.22
		c13.182-13.34,28.671-23.532,46.46-30.59c17.781-7.051,36.8-10.58,57.04-10.58c19.319,0,36.642,3.91,51.979,11.73
		c15.331,7.82,28.362,16.79,39.101,26.91l-43.24,48.76c-7.059-6.131-14.26-10.882-21.62-14.26c-7.36-3.371-16.1-5.06-26.22-5.06
		c-9.2,0-17.789,1.998-25.76,5.98c-7.979,3.989-14.879,9.66-20.7,17.02c-5.829,7.36-10.43,16.409-13.8,27.14
		c-3.379,10.738-5.061,22.849-5.061,36.34c0,28.218,6.44,49.838,19.32,64.86c12.88,15.029,29.439,22.54,49.68,22.54
		c9.811,0,18.63-2.221,26.45-6.67c7.82-4.442,14.95-10.192,21.39-17.25l43.24,47.84c-12.88,14.72-27.449,25.76-43.7,33.12
		c-16.258,7.36-33.58,11.04-51.979,11.04c-19.629,0-38.181-3.148-55.66-9.43c-17.48-6.282-32.891-15.791-46.23-28.52
		c-13.34-12.722-23.92-28.671-31.74-47.84C120.731,205.843,116.821,183.533,116.821,158.075z"/>
</g>
<g>
	<path fill="#0099F6" d="M119.042,306.126h96.87l31.527,97.52l10.317,38.64h1.719l10.318-38.64l29.806-97.52h96.871v299H317.37
		v-70.38c0-8.891,0.474-20.161,1.434-33.811c0.948-13.642,2.004-27.75,3.15-42.319c1.147-14.562,2.481-28.592,4.014-42.09
		c1.522-13.491,2.865-24.682,4.012-33.58h-1.719l-30.953,88.78l-19.489,53.82h-42.417l-19.489-53.82l-29.232-88.78h-2.292
		c1.146,8.898,2.48,20.089,4.011,33.58c1.523,13.498,2.867,27.528,4.013,42.09c1.148,14.569,2.196,28.678,3.153,42.319
		c0.95,13.649,1.434,24.92,1.434,33.811v70.38h-77.955V306.126z"/>
</g>
<g>
	<path fill="#0099F6" d="M363.013,514.476c35.113-32.473,67.718-63.086,97.813-91.826c30.096-28.725,56.013-55.751,77.749-81.05
		c21.736-25.299,38.73-49.339,50.996-72.149c12.253-22.795,18.392-44.186,18.392-64.185c0-26.851-6.975-46.689-20.899-59.5
		c-13.938-12.796-32.604-19.208-56.014-19.208c-19.515,0-37.201,5.783-53.085,17.334c-15.884,11.566-31.076,24.523-45.562,38.886
		l-76.077-86.204c14.487-16.236,28.843-30.453,43.055-42.633c14.212-12.181,29.116-22.166,44.727-29.984
		c15.597-7.803,32.042-13.586,49.325-17.334C510.699,2.874,529.927,1,551.114,1c28.426,0,54.472,4.685,78.167,14.055
		c23.684,9.37,44.021,22.488,61.029,39.354c16.994,16.866,30.227,37.333,39.71,61.374c9.471,24.055,14.213,50.759,14.213,80.114
		c0,23.747-5.017,47.948-15.049,72.617c-10.032,24.684-23.408,49.192-40.128,73.555c-16.721,24.362-35.531,48.109-56.432,71.211
		c-20.899,23.118-42.218,44.977-63.954,65.591c14.487-1.874,30.789-3.587,48.907-5.154c18.104-1.552,33.57-2.342,46.398-2.342
		h107.009v134.928H363.013V514.476z"/>
</g>
<rect x="-83.132" y="-88.885" fill="none" width="356.982" height="355.482"/>
<text transform="matrix(1 0 0 1 -42.6387 231.2749)" display="none" fill="#0099F6" font-family="'SourceCodePro-Black'" font-size="460">C</text>
<rect x="-68.131" y="209.966" fill="none" width="356.982" height="355.483"/>
<text transform="matrix(1 0 0 1 -27.6377 530.126)" display="none" fill="#0099F6" font-family="'SourceCodePro-Black'" font-size="460">M</text>
<rect x="133.2" y="-120.884" fill="none" width="593.8" height="723.386"/>
<text transform="matrix(1 0 0 1 149.0049 531.2666)" display="none" fill="#0099F6" font-family="'SourceCodePro-Black'" font-size="937">2</text>
</svg>
