<?xml version="1.0" standalone="no"?>
<!DOCTYPE svg PUBLIC "-//W3C//DTD SVG 20010904//EN"
 "http://www.w3.org/TR/2001/REC-SVG-20010904/DTD/svg10.dtd">
<svg version="1.0" xmlns="http://www.w3.org/2000/svg"
 width="626.000000pt" height="626.000000pt" viewBox="0 0 626.000000 626.000000"
 preserveAspectRatio="xMidYMid meet">
<metadata>
Created by potrace 1.11, written by Peter Selinger 2001-2013
</metadata>
<g transform="translate(0.000000,626.000000) scale(0.100000,-0.100000)"
fill="#000000" stroke="none">
<path d="M93 6234 c-22 -15 -52 -45 -67 -67 l-26 -41 1 -606 0 -605 20 95
c113 540 455 936 945 1093 161 52 283 70 464 71 175 0 282 -17 412 -64 138
-50 340 -171 447 -268 l54 -48 -203 -229 c-112 -127 -207 -234 -211 -239 -4
-5 -36 12 -71 38 -75 56 -182 109 -258 127 -81 19 -242 17 -314 -5 -108 -32
-176 -74 -262 -160 -69 -69 -89 -97 -132 -186 -28 -58 -60 -140 -71 -184 -60
-230 -48 -538 29 -747 83 -227 257 -386 476 -434 101 -23 254 -17 339 14 69
24 167 88 242 155 l51 46 188 -207 c103 -115 199 -220 213 -235 l25 -28 -84
-80 c-185 -179 -407 -292 -664 -336 -124 -22 -400 -14 -538 15 -292 63 -530
191 -718 388 -180 188 -300 425 -359 703 l-20 95 2 -2060 c2 -1705 2 -1807 4
-592 l3 1467 478 0 478 0 156 -482 c124 -383 258 -831 258 -863 0 -3 7 -5 15
-5 15 0 15 -1 89 270 24 91 96 334 159 540 63 206 127 414 142 463 l26 87 480
0 479 0 0 -881 0 -881 102 93 c168 155 510 481 717 684 729 717 1137 1275
1259 1723 24 89 26 114 26 292 1 173 -2 204 -21 272 -60 207 -164 337 -338
423 -188 93 -472 111 -678 43 -170 -55 -375 -199 -637 -445 l-77 -72 -350 398
c-193 218 -363 412 -378 429 l-27 32 189 188 c275 275 457 414 698 532 273
134 544 201 890 219 362 20 667 -25 955 -140 502 -201 856 -577 1028 -1094
139 -418 145 -869 16 -1268 -194 -600 -651 -1250 -1430 -2034 -127 -128 -225
-233 -217 -233 7 0 91 9 186 20 371 42 536 51 1060 57 l517 6 0 2316 0 2317
-26 41 c-15 22 -45 52 -67 67 l-41 26 -2996 0 -2996 0 -41 -26z"/>
<path d="M650 2356 c0 -3 11 -99 25 -213 65 -553 95 -1002 102 -1545 l6 -458
-386 0 c-337 0 -387 -2 -387 -15 0 -23 71 -96 107 -112 48 -20 5978 -20 6026
0 36 16 107 89 107 112 0 13 -246 15 -2136 15 l-2137 0 6 452 c3 249 11 512
17 583 6 72 20 245 31 385 11 140 31 352 45 470 40 353 38 330 23 330 -9 0
-65 -147 -169 -447 -85 -246 -197 -567 -250 -713 l-96 -265 -208 0 -208 0 -75
205 c-41 113 -150 432 -242 710 -126 382 -171 506 -184 508 -9 2 -17 1 -17 -2z"/>
</g>
</svg>
